<?xml version="1.0"?>
<svg xmlns="http://www.w3.org/2000/svg" xmlns:xlink="http://www.w3.org/1999/xlink" version="1.1" id="Capa_1" x="0px" y="0px" viewBox="0 0 459.367 459.367" style="enable-background:new 0 0 459.367 459.367;" xml:space="preserve" width="512px" height="512px" class=""><g transform="matrix(0.99 0 0 0.99 2.29683 2.29683)"><g>
	<g>
		<path d="M172.988,117.487l-17.12-17.12l17.12-17.08c2.032-2.01,2.05-5.288,0.04-7.32s-5.288-2.05-7.32-0.04l-17.12,17.12    l-17.08-17.12c-2.01-2.021-5.279-2.03-7.3-0.02s-2.03,5.279-0.02,7.3l17.12,17.12l-17.12,17.08c-2.021,2.01-2.03,5.279-0.02,7.3    s5.279,2.03,7.3,0.02l17.12-17.12l17.12,17.2c2.013,2.004,5.267,2.004,7.28,0h0c2.021-2.009,2.031-5.276,0.023-7.297    C173.004,117.502,172.996,117.494,172.988,117.487z" data-original="#000000" class="active-path" data-old_color="#F90303" fill="#F70000"/>
	</g>
</g><g>
	<g>
		<path d="M205.171,43.75c-31.225-31.259-81.878-31.287-113.137-0.063s-31.287,81.878-0.063,113.137    c15.01,15.026,35.378,23.467,56.617,23.463c21.203,0.031,41.544-8.391,56.52-23.4C236.368,125.662,236.396,75.009,205.171,43.75z     M148.521,169.994c-18.412-0.018-36.066-7.335-49.093-20.347c-13.1-13.049-20.444-30.79-20.4-49.28    c0.037-38.417,31.21-69.53,69.627-69.493c38.417,0.037,69.53,31.21,69.493,69.627    C218.111,138.918,186.938,170.031,148.521,169.994z" data-original="#000000" class="active-path" data-old_color="#F90303" fill="#F70000"/>
	</g>
</g><g>
	<g>
		<path d="M368.748,102.527l0.12,0.2c-6.411-2.307-13.187-3.432-20-3.32h-99.84c-0.438-26.257-10.966-51.338-29.4-70.04    C180.376-9.829,116.781-9.783,77.585,29.47c-39.196,39.253-39.15,102.848,0.103,142.044c15.911,15.888,36.694,25.978,59.02,28.653    v231.2c0,15.464,12.536,28,28,28h184c34.448-0.088,62.352-27.992,62.44-62.44v-235.28    C411.056,134.919,394.035,111.186,368.748,102.527z M307.868,109.647h31.52v29.12l-12-13.64c-1.881-2.159-5.153-2.392-7.32-0.52    l-0.56,0.56l-12,13.56L307.868,109.647z M84.908,164.047c-35.169-35.187-35.155-92.223,0.032-127.392s92.223-35.155,127.392,0.032    s35.155,92.223-0.032,127.392c-16.9,16.891-39.818,26.376-63.712,26.368C124.695,190.469,101.778,180.968,84.908,164.047z     M195.868,188.927c2.827-1.52,5.587-3.173,8.28-4.96l108.44,0.08c3.468,0,6.28,2.812,6.28,6.28v15.32    c0,3.468-2.812,6.28-6.28,6.28h-110.44c-1.652-0.007-3.235-0.668-4.4-1.84c-1.193-1.171-1.869-2.769-1.88-4.44v-15.4    C195.824,189.808,195.824,189.365,195.868,188.927z M147.068,200.807h1.52c12.649-0.03,25.177-2.46,36.92-7.16v12    c0.003,4.244,1.635,8.325,4.56,11.4l0.32,0.32c3.116,3.125,7.347,4.881,11.76,4.88h110.4c9.165-0.022,16.596-7.435,16.64-16.6    v-15.4c-0.044-9.165-7.475-16.578-16.64-16.6h-95.2l2.28-2.2c16.602-16.567,26.853-38.441,28.96-61.8h48.88v43.12    c0.034,2.872,2.39,5.172,5.261,5.138c1.461-0.017,2.846-0.648,3.819-1.738l17.04-19.6l16.92,19.48    c1.835,2.209,5.113,2.513,7.323,0.678c1.178-0.978,1.865-2.426,1.877-3.958v-43.12c4.893-0.498,9.771,1.085,13.44,4.36    c2.788,2.775,4.357,6.546,4.36,10.48v242.76c-0.011,0.2-0.011,0.4,0,0.6c0.36,12.92-2.44,22.32-8.2,28.48    c-5.76,6.16-14.88,9.36-27,9.76h-170.4c-5.336-0.009-10.535,1.687-14.84,4.84V200.807z M151.428,420.847l0-0.04    c2.775-2.788,6.546-4.357,10.48-4.36h170.64c15.04-0.48,26.6-4.72,34.4-13c7.8-8.28,11.48-20,11-36v-242.84    c-0.003-2.161-0.285-4.312-0.84-6.4c1.333,0.88,2.667,1.8,4,2.76c2.224,5.866,3.363,12.087,3.36,18.36v235.12    c-0.131,28.664-23.336,51.869-52,52h-184.56C148.648,424.34,149.851,422.426,151.428,420.847z M400.908,396.767    c-0.131,28.664-23.336,51.869-52,52h-184c-7.585-0.012-14.329-4.829-16.8-12h184.16c34.439-0.11,62.33-28.001,62.44-62.44v-235    c0-0.693,0-1.387,0-2.08c4.049,7.497,6.18,15.88,6.2,24.4V396.767z" data-original="#000000" class="active-path" data-old_color="#F90303" fill="#F70000"/>
	</g>
</g></g> </svg>
